<mxfile host="app.diagrams.net" modified="2023-10-02T18:23:16.426Z" agent="Mozilla/5.0 (X11; Linux x86_64; rv:109.0) Gecko/20100101 Firefox/115.0" version="22.0.1" etag="vueRtt_RWummXPOIdyEU" type="github">
  <diagram name="Page-1" id="kyCc2YOPeomWr0MNeL3c">
    <mxGraphModel>
      <root>
        <mxCell id="0" />
        <mxCell id="1" parent="0" />
      </root>
    </mxGraphModel>
  </diagram>
</mxfile>
